<svg width="15" height="11" viewBox="0 0 15 11" fill="none" xmlns="http://www.w3.org/2000/svg">
<path d="M0.625 10.5V8.75C0.625 8.39583 0.716146 8.07031 0.898438 7.77344C1.08073 7.47656 1.32292 7.25 1.625 7.09375C2.27083 6.77083 2.92708 6.52865 3.59375 6.36719C4.26042 6.20573 4.9375 6.125 5.625 6.125C6.3125 6.125 6.98958 6.20573 7.65625 6.36719C8.32292 6.52865 8.97917 6.77083 9.625 7.09375C9.92708 7.25 10.1693 7.47656 10.3516 7.77344C10.5339 8.07031 10.625 8.39583 10.625 8.75V10.5H0.625ZM11.875 10.5V8.625C11.875 8.16667 11.7474 7.72656 11.4922 7.30469C11.237 6.88281 10.875 6.52083 10.4062 6.21875C10.9375 6.28125 11.4375 6.38802 11.9063 6.53906C12.375 6.6901 12.8125 6.875 13.2188 7.09375C13.5938 7.30208 13.8802 7.53385 14.0781 7.78906C14.276 8.04427 14.375 8.32292 14.375 8.625V10.5H11.875ZM5.625 5.5C4.9375 5.5 4.34896 5.25521 3.85938 4.76562C3.36979 4.27604 3.125 3.6875 3.125 3C3.125 2.3125 3.36979 1.72396 3.85938 1.23438C4.34896 0.744792 4.9375 0.5 5.625 0.5C6.3125 0.5 6.90104 0.744792 7.39062 1.23438C7.88021 1.72396 8.125 2.3125 8.125 3C8.125 3.6875 7.88021 4.27604 7.39062 4.76562C6.90104 5.25521 6.3125 5.5 5.625 5.5ZM11.875 3C11.875 3.6875 11.6302 4.27604 11.1406 4.76562C10.651 5.25521 10.0625 5.5 9.375 5.5C9.26042 5.5 9.11458 5.48698 8.9375 5.46094C8.76042 5.4349 8.61458 5.40625 8.5 5.375C8.78125 5.04167 8.9974 4.67188 9.14844 4.26562C9.29948 3.85938 9.375 3.4375 9.375 3C9.375 2.5625 9.29948 2.14062 9.14844 1.73438C8.9974 1.32812 8.78125 0.958333 8.5 0.625C8.64583 0.572917 8.79167 0.539062 8.9375 0.523438C9.08333 0.507813 9.22917 0.5 9.375 0.5C10.0625 0.5 10.651 0.744792 11.1406 1.23438C11.6302 1.72396 11.875 2.3125 11.875 3ZM1.875 9.25H9.375V8.75C9.375 8.63542 9.34635 8.53125 9.28906 8.4375C9.23177 8.34375 9.15625 8.27083 9.0625 8.21875C8.5 7.9375 7.93229 7.72656 7.35938 7.58594C6.78646 7.44531 6.20833 7.375 5.625 7.375C5.04167 7.375 4.46354 7.44531 3.89062 7.58594C3.31771 7.72656 2.75 7.9375 2.1875 8.21875C2.09375 8.27083 2.01823 8.34375 1.96094 8.4375C1.90365 8.53125 1.875 8.63542 1.875 8.75V9.25ZM5.625 4.25C5.96875 4.25 6.26302 4.1276 6.50781 3.88281C6.7526 3.63802 6.875 3.34375 6.875 3C6.875 2.65625 6.7526 2.36198 6.50781 2.11719C6.26302 1.8724 5.96875 1.75 5.625 1.75C5.28125 1.75 4.98698 1.8724 4.74219 2.11719C4.4974 2.36198 4.375 2.65625 4.375 3C4.375 3.34375 4.4974 3.63802 4.74219 3.88281C4.98698 4.1276 5.28125 4.25 5.625 4.25Z" fill="#222222" fill-opacity="0.82"/>
</svg>
