<svg width="17" height="17" viewBox="0 0 17 17" fill="none" xmlns="http://www.w3.org/2000/svg">
<path d="M5 12.875C5.24792 12.875 5.45573 12.7911 5.62344 12.6234C5.79115 12.4557 5.875 12.2479 5.875 12C5.875 11.7521 5.79115 11.5443 5.62344 11.3766C5.45573 11.2089 5.24792 11.125 5 11.125C4.75208 11.125 4.54427 11.2089 4.37656 11.3766C4.20885 11.5443 4.125 11.7521 4.125 12C4.125 12.2479 4.20885 12.4557 4.37656 12.6234C4.54427 12.7911 4.75208 12.875 5 12.875ZM5 9.375C5.24792 9.375 5.45573 9.29115 5.62344 9.12344C5.79115 8.95573 5.875 8.74792 5.875 8.5C5.875 8.25208 5.79115 8.04427 5.62344 7.87656C5.45573 7.70885 5.24792 7.625 5 7.625C4.75208 7.625 4.54427 7.70885 4.37656 7.87656C4.20885 8.04427 4.125 8.25208 4.125 8.5C4.125 8.74792 4.20885 8.95573 4.37656 9.12344C4.54427 9.29115 4.75208 9.375 5 9.375ZM5 5.875C5.24792 5.875 5.45573 5.79115 5.62344 5.62344C5.79115 5.45573 5.875 5.24792 5.875 5C5.875 4.75208 5.79115 4.54427 5.62344 4.37656C5.45573 4.20885 5.24792 4.125 5 4.125C4.75208 4.125 4.54427 4.20885 4.37656 4.37656C4.20885 4.54427 4.125 4.75208 4.125 5C4.125 5.24792 4.20885 5.45573 4.37656 5.62344C4.54427 5.79115 4.75208 5.875 5 5.875ZM7.625 12.875H12.875V11.125H7.625V12.875ZM7.625 9.375H12.875V7.625H7.625V9.375ZM7.625 5.875H12.875V4.125H7.625V5.875ZM2.375 16.375C1.89375 16.375 1.48177 16.2036 1.13906 15.8609C0.796354 15.5182 0.625 15.1062 0.625 14.625V2.375C0.625 1.89375 0.796354 1.48177 1.13906 1.13906C1.48177 0.796354 1.89375 0.625 2.375 0.625H14.625C15.1062 0.625 15.5182 0.796354 15.8609 1.13906C16.2036 1.48177 16.375 1.89375 16.375 2.375V14.625C16.375 15.1062 16.2036 15.5182 15.8609 15.8609C15.5182 16.2036 15.1062 16.375 14.625 16.375H2.375ZM2.375 14.625H14.625V2.375H2.375V14.625Z" fill="#222222" fill-opacity="0.75"/>
</svg>
