<svg width="15" height="15" viewBox="0 0 15 15" fill="none" xmlns="http://www.w3.org/2000/svg">
<g clip-path="url(#clip0_1156_2974)">
<path d="M7.5524 4.23714V6.0011C7.5524 6.11401 7.45657 6.20498 7.3383 6.20498H7.28123C7.16299 6.20498 7.06766 6.11401 7.06766 6.0011V4.22896C7.06766 3.93846 6.86226 3.85156 6.66606 3.85156C6.46933 3.85156 6.26442 3.93846 6.26442 4.22896V6.0011C6.26442 6.11401 6.1681 6.20498 6.05038 6.20498H5.99331C5.87557 6.20498 5.77924 6.11401 5.77924 6.0011V4.23714C5.77924 3.71674 5.00199 3.73435 5.00199 4.243C5.00199 4.85208 5.00199 5.92748 5.00199 5.92748C4.99845 6.86275 5.23235 7.10586 5.61922 7.39713C5.93114 7.63186 6.19772 7.76642 6.19772 8.34922V12.0992H7.13448V8.34922C7.13448 7.76642 7.40053 7.63186 7.71245 7.39713C8.09932 7.10586 8.33325 6.86275 8.32968 5.92748C8.32968 5.92748 8.32968 4.85205 8.32968 4.243C8.32968 3.73435 7.5524 3.71674 7.5524 4.23714Z" fill="#222222" fill-opacity="0.82"/>
<path d="M10.0981 4.41283C9.89878 4.94522 9.52571 6.24588 9.52571 6.90644C9.47371 8.49535 10.33 7.64369 10.3514 8.88805V12.1097H11.2836L11.2882 12.1212C11.2882 12.1212 11.2882 12.1163 11.2882 12.1097C11.2882 11.9601 11.2882 10.1778 11.2882 8.35953C11.2882 6.56091 11.2882 4.72889 11.2882 4.41286C11.2882 3.76376 10.4075 3.58487 10.0981 4.41283Z" fill="#222222" fill-opacity="0.82"/>
<path d="M13.9259 1.03948C13.7965 0.733389 13.5809 0.474492 13.3092 0.291006C13.1737 0.199248 13.0238 0.12665 12.8633 0.0766992C12.7027 0.026748 12.5325 0 12.3566 0H3.43119H3.28799H2.64375C2.40932 0 2.18402 0.0476367 1.98015 0.133799C1.67382 0.26373 1.41492 0.478828 1.23144 0.750234C1.13968 0.886055 1.06679 1.03591 1.01687 1.19643C0.966914 1.35647 0.94043 1.52695 0.94043 1.70203V13.2979C0.94043 13.5316 0.987832 13.7566 1.07446 13.9605C1.20393 14.2666 1.41952 14.5255 1.69069 14.709C1.82678 14.8007 1.9771 14.8736 2.13715 14.9233C2.29767 14.9733 2.46791 15 2.64375 15H3.28799H3.43119H12.3566C12.5906 15 12.8159 14.9524 13.0197 14.8662C13.326 14.7365 13.5855 14.5214 13.7684 14.2497C13.8601 14.1142 13.9336 13.9641 13.983 13.8038C14.0335 13.6437 14.06 13.4733 14.06 13.2979V1.70203C14.06 1.46862 14.0121 1.24333 13.9259 1.03948ZM3.16972 14.0917H2.64375C2.53213 14.0915 2.42868 14.0696 2.33388 14.0296C2.19217 13.9694 2.06985 13.8683 1.98372 13.7411C1.94092 13.6776 1.90726 13.6083 1.88435 13.5339C1.86141 13.4597 1.84866 13.3807 1.84866 13.2979V1.70203C1.84866 1.59144 1.8711 1.48822 1.91083 1.39342C1.97098 1.25197 2.0719 1.12969 2.19932 1.04379C2.26301 1.00096 2.33235 0.967061 2.40674 0.943887C2.48115 0.920947 2.56017 0.908437 2.64375 0.908203H3.16975L3.16972 14.0917ZM13.1512 13.298C13.1512 13.4086 13.1293 13.5118 13.0896 13.6066C13.0294 13.7483 12.928 13.8703 12.8011 13.9565C12.7374 13.9993 12.6675 14.0329 12.5936 14.0561C12.5187 14.0791 12.4402 14.0916 12.3567 14.0918H3.69267V0.908232H12.3567C12.4678 0.908496 12.5712 0.930674 12.666 0.970693C12.8082 1.03058 12.9305 1.132 13.0162 1.25892C13.059 1.32237 13.0932 1.39195 13.1161 1.46607C13.139 1.54049 13.1513 1.619 13.1513 1.70206V13.298H13.1512Z" fill="#222222" fill-opacity="0.82"/>
</g>
<defs>
<clipPath id="clip0_1156_2974">
<rect width="15" height="15" fill="white"/>
</clipPath>
</defs>
</svg>
