<svg width="24" height="24" viewBox="0 0 24 24" fill="none" xmlns="http://www.w3.org/2000/svg">
<path d="M16.0237 5.54225H15.0633V0.510471C15.0633 0.228545 14.8347 0 14.5528 0H9.44807C9.16615 0 8.9376 0.228545 8.9376 0.510471V5.54225H7.97714C7.12339 5.54225 6.42871 6.23683 6.42871 7.09063V22.4516C6.42871 23.3054 7.12334 24 7.97714 24H16.0237C16.8775 24 17.5721 23.3054 17.5721 22.4516V7.09068C17.5721 6.23688 16.8775 5.54225 16.0237 5.54225ZM14.5273 8.5552V11.9773H9.47364V8.5552H14.5273ZM14.0423 1.02094V7.51432L9.95854 7.51428V1.02094H14.0423ZM16.5512 22.4516C16.5512 22.7424 16.3145 22.9791 16.0237 22.9791H7.97714C7.68632 22.9791 7.44965 22.7424 7.44965 22.4516V7.09063C7.44965 6.79981 7.68627 6.5632 7.97714 6.5632H8.9376V7.51554C8.81154 7.52186 8.69185 7.57412 8.6022 7.66377C8.50647 7.7595 8.4527 7.88935 8.4527 8.02475V12.4877C8.4527 12.7696 8.68125 12.9982 8.96317 12.9982H15.0377C15.3197 12.9982 15.5482 12.7696 15.5482 12.4877V8.02475C15.5482 7.75143 15.3332 7.52896 15.0633 7.51554V6.5632H16.0237C16.3145 6.5632 16.5512 6.79981 16.5512 7.09068V22.4516Z" fill="#222222" fill-opacity="0.82"/>
<path d="M11.2383 14.5718H8.9509C8.66897 14.5718 8.44043 14.8003 8.44043 15.0822C8.44043 15.3642 8.66897 15.5927 8.9509 15.5927H11.2383C11.5202 15.5927 11.7488 15.3642 11.7488 15.0822C11.7488 14.8003 11.5202 14.5718 11.2383 14.5718Z" fill="#222222" fill-opacity="0.82"/>
<path d="M15.0507 14.5718H12.7634C12.4815 14.5718 12.2529 14.8003 12.2529 15.0822C12.2529 15.3642 12.4815 15.5927 12.7634 15.5927H15.0507C15.3327 15.5927 15.5612 15.3642 15.5612 15.0822C15.5612 14.8003 15.3326 14.5718 15.0507 14.5718Z" fill="#222222" fill-opacity="0.82"/>
<path d="M11.2383 17.2188H8.9509C8.66897 17.2188 8.44043 17.4473 8.44043 17.7292C8.44043 18.0111 8.66897 18.2397 8.9509 18.2397H11.2383C11.5202 18.2397 11.7488 18.0111 11.7488 17.7292C11.7488 17.4473 11.5202 17.2188 11.2383 17.2188Z" fill="#222222" fill-opacity="0.82"/>
<path d="M15.0507 17.2188H12.7634C12.4815 17.2188 12.2529 17.4473 12.2529 17.7292C12.2529 18.0111 12.4815 18.2397 12.7634 18.2397H15.0507C15.3327 18.2397 15.5612 18.0111 15.5612 17.7292C15.5612 17.4473 15.3326 17.2188 15.0507 17.2188Z" fill="#222222" fill-opacity="0.82"/>
<path d="M11.2383 19.9175H8.9509C8.66897 19.9175 8.44043 20.146 8.44043 20.428C8.44043 20.7099 8.66897 20.9384 8.9509 20.9384H11.2383C11.5202 20.9384 11.7488 20.7099 11.7488 20.428C11.7488 20.146 11.5202 19.9175 11.2383 19.9175Z" fill="#222222" fill-opacity="0.82"/>
<path d="M15.0507 19.9175H12.7634C12.4815 19.9175 12.2529 20.146 12.2529 20.428C12.2529 20.7099 12.4815 20.9384 12.7634 20.9384H15.0507C15.3327 20.9384 15.5612 20.7099 15.5612 20.428C15.5612 20.146 15.3326 19.9175 15.0507 19.9175Z" fill="#222222" fill-opacity="0.82"/>
</svg>
