<svg width="23" height="23" viewBox="0 0 23 23" fill="none" xmlns="http://www.w3.org/2000/svg">
<g clip-path="url(#clip0_1674_9121)">
<path d="M16.1719 2.42944C14.7595 2.42944 13.6562 3.13741 13.6562 4.05382C13.6562 4.97022 14.7595 5.69257 16.1719 5.69257C16.7433 5.69257 17.1386 5.57577 17.3938 5.31882C17.7262 4.9864 17.7118 4.54796 17.71 4.15444V3.96757C17.7118 3.57585 17.7262 3.13562 17.3938 2.80319C17.1386 2.54624 16.7433 2.42944 16.1719 2.42944ZM12.7506 4.21194C11.8702 4.59468 11.7875 4.62882 11.7587 4.64319C11.1909 4.91632 11.0652 5.37452 11.1406 5.70694C11.261 6.23522 11.8971 6.56944 12.5206 6.42569C12.8854 6.34124 13.2897 6.08968 13.5988 5.85069C14.1917 7.61882 14.7649 10.5603 13.6706 12.1757C13.1423 12.9573 12.2834 13.3401 11.04 13.3401H10.3787C9.70312 13.3401 9.25211 13.2969 9.05625 13.0382C8.88734 12.8136 8.77055 12.2422 9.1425 10.8676C8.27102 11.3114 6.7832 11.5001 4.55688 11.5001C2.65937 11.5001 1.31711 11.3527 0.43125 11.0257C0.20125 11.6456 2.99617e-08 12.447 2.99617e-08 13.3401C2.99617e-08 16.4702 9.56297 16.5601 10.6519 16.5601C11.6438 16.5601 12.5494 16.4972 13.3975 16.3876C13.358 16.1612 13.34 15.9132 13.34 15.6401C13.34 12.8603 15.6903 10.5944 18.5869 10.5944C18.612 10.5944 18.648 10.6088 18.6731 10.6088C18.5653 10.4417 18.4377 10.253 18.2994 10.0482C17.728 9.20007 16.9427 8.02132 16.33 6.59819C16.2779 6.59999 16.2258 6.61257 16.1719 6.61257C14.7272 6.61257 13.5466 6.01421 13.0238 5.11757L13.0094 5.10319C12.8548 4.83187 12.774 4.52819 12.7506 4.21194ZM1.27938 7.82007C0.558828 7.82007 2.99617e-08 8.65382 2.99617e-08 9.37257C2.99617e-08 9.67265 -0.00539062 10.5801 4.55688 10.5801C9.2 10.5801 9.2 9.67265 9.2 9.37257C9.2 8.65382 8.64117 7.82007 7.92063 7.82007H1.27938ZM18.5869 11.5144C16.1988 11.5144 14.26 13.3688 14.26 15.6401C14.26 17.1602 15.0111 17.4801 15.64 17.4801C15.8754 17.4801 16.0551 17.4226 16.2006 17.3363C16.5492 18.7379 17.8124 19.7801 19.32 19.7801C21.0953 19.7801 22.54 18.3354 22.54 16.5601C22.54 16.0641 22.425 15.5754 22.2094 15.1369C22.5831 15.0633 23 14.8405 23 14.1307C23 13.0346 21.4637 11.5144 18.5869 11.5144ZM20.5275 15.1801C20.9156 15.5161 21.16 16.0066 21.16 16.5601C21.16 17.5753 20.3352 18.4001 19.32 18.4001C18.3048 18.4001 17.48 17.5753 17.48 16.5601C17.48 16.4163 17.4908 16.2762 17.5231 16.1432C17.7855 15.9797 18.1287 15.809 18.5725 15.6257C19.3488 15.3058 19.9884 15.2088 20.5275 15.1801ZM19.32 15.6401C18.8115 15.6401 18.4 16.0516 18.4 16.5601C18.4 17.0686 18.8115 17.4801 19.32 17.4801C19.8285 17.4801 20.24 17.0686 20.24 16.5601C20.24 16.0516 19.8285 15.6401 19.32 15.6401ZM1.40875 16.1144C1.38898 16.26 1.38 16.4127 1.38 16.5601C1.38 18.3354 2.82469 19.7801 4.6 19.7801C6.09141 19.7801 7.34023 18.7576 7.705 17.3794C7.2468 17.3489 6.77422 17.3166 6.29625 17.2644C6.01953 17.9329 5.36727 18.4001 4.6 18.4001C3.60094 18.4001 2.78336 17.5969 2.76 16.6032C2.27844 16.4648 1.82383 16.2995 1.40875 16.1144ZM3.7375 16.8476C3.85969 17.2141 4.19391 17.4801 4.6 17.4801C4.8893 17.4801 5.14984 17.3435 5.31875 17.1351C4.78328 17.0578 4.2532 16.9608 3.7375 16.8476Z" fill="#222222" fill-opacity="0.75"/>
</g>
<defs>
<clipPath id="clip0_1674_9121">
<rect width="23" height="23" fill="white"/>
</clipPath>
</defs>
</svg>
