<svg width="14" height="14" viewBox="0 0 14 14" fill="none" xmlns="http://www.w3.org/2000/svg">
<path d="M5.16647 13.6666L4.89981 11.5333C4.75536 11.4777 4.61925 11.411 4.49147 11.3333C4.36369 11.2555 4.23869 11.1721 4.11647 11.0833L2.13314 11.9166L0.299805 8.74992L2.01647 7.44992C2.00536 7.37214 1.9998 7.29714 1.9998 7.22492V6.77492C1.9998 6.7027 2.00536 6.6277 2.01647 6.54992L0.299805 5.24992L2.13314 2.08325L4.11647 2.91659C4.23869 2.8277 4.36647 2.74436 4.4998 2.66659C4.63314 2.58881 4.76647 2.52214 4.89981 2.46659L5.16647 0.333252H8.83314L9.0998 2.46659C9.24425 2.52214 9.38036 2.58881 9.50814 2.66659C9.63592 2.74436 9.76092 2.8277 9.88314 2.91659L11.8665 2.08325L13.6998 5.24992L11.9831 6.54992C11.9942 6.6277 11.9998 6.7027 11.9998 6.77492V7.22492C11.9998 7.29714 11.9887 7.37214 11.9665 7.44992L13.6831 8.74992L11.8498 11.9166L9.88314 11.0833C9.76092 11.1721 9.63314 11.2555 9.49981 11.3333C9.36647 11.411 9.23314 11.4777 9.0998 11.5333L8.83314 13.6666H5.16647ZM7.03314 9.33325C7.67758 9.33325 8.22758 9.10547 8.68314 8.64992C9.13869 8.19436 9.36647 7.64436 9.36647 6.99992C9.36647 6.35547 9.13869 5.80547 8.68314 5.34992C8.22758 4.89436 7.67758 4.66658 7.03314 4.66658C6.37758 4.66658 5.8248 4.89436 5.3748 5.34992C4.92481 5.80547 4.6998 6.35547 4.6998 6.99992C4.6998 7.64436 4.92481 8.19436 5.3748 8.64992C5.8248 9.10547 6.37758 9.33325 7.03314 9.33325ZM7.03314 7.99992C6.75536 7.99992 6.51925 7.9027 6.32481 7.70825C6.13036 7.51381 6.03314 7.2777 6.03314 6.99992C6.03314 6.72214 6.13036 6.48603 6.32481 6.29158C6.51925 6.09714 6.75536 5.99992 7.03314 5.99992C7.31092 5.99992 7.54703 6.09714 7.74147 6.29158C7.93592 6.48603 8.03314 6.72214 8.03314 6.99992C8.03314 7.2777 7.93592 7.51381 7.74147 7.70825C7.54703 7.9027 7.31092 7.99992 7.03314 7.99992ZM6.33314 12.3333H7.64981L7.88314 10.5666C8.22758 10.4777 8.54703 10.3471 8.84147 10.1749C9.13592 10.0027 9.40536 9.79436 9.64981 9.54992L11.2998 10.2333L11.9498 9.09992L10.5165 8.01659C10.572 7.86103 10.6109 7.69714 10.6331 7.52492C10.6554 7.3527 10.6665 7.1777 10.6665 6.99992C10.6665 6.82214 10.6554 6.64714 10.6331 6.47492C10.6109 6.3027 10.572 6.13881 10.5165 5.98325L11.9498 4.89992L11.2998 3.76659L9.64981 4.46659C9.40536 4.21103 9.13592 3.99714 8.84147 3.82492C8.54703 3.6527 8.22758 3.52214 7.88314 3.43325L7.66647 1.66659H6.3498L6.11647 3.43325C5.77203 3.52214 5.45258 3.6527 5.15814 3.82492C4.86369 3.99714 4.59425 4.20547 4.3498 4.44992L2.6998 3.76659L2.0498 4.89992L3.48314 5.96658C3.42758 6.13325 3.38869 6.29992 3.36647 6.46658C3.34425 6.63325 3.33314 6.81103 3.33314 6.99992C3.33314 7.1777 3.34425 7.34992 3.36647 7.51659C3.38869 7.68325 3.42758 7.84992 3.48314 8.01659L2.0498 9.09992L2.6998 10.2333L4.3498 9.53325C4.59425 9.78881 4.86369 10.0027 5.15814 10.1749C5.45258 10.3471 5.77203 10.4777 6.11647 10.5666L6.33314 12.3333Z" fill="#222222" fill-opacity="0.82"/>
</svg>
